<svg width="25" height="20" viewBox="0 0 25 20" fill="none" xmlns="http://www.w3.org/2000/svg">
<path d="M22.5 0H2.5C1.125 0 0 1.125 0 2.5V17.5C0 18.875 1.125 20 2.5 20H22.5C23.875 20 25 18.875 25 17.5V2.5C25 1.125 23.875 0 22.5 0ZM22 5.3125L13.825 10.425C13.0125 10.9375 11.9875 10.9375 11.175 10.425L3 5.3125C2.6875 5.1125 2.5 4.775 2.5 4.4125C2.5 3.575 3.4125 3.075 4.125 3.5125L12.5 8.75L20.875 3.5125C21.5875 3.075 22.5 3.575 22.5 4.4125C22.5 4.775 22.3125 5.1125 22 5.3125Z" fill="#BB8E34"/>
</svg>
