<svg width="35" height="60" viewBox="0 0 35 60" fill="none" xmlns="http://www.w3.org/2000/svg">
<path d="M2.15692 2.15741C1.33673 2.97784 0.875977 4.09044 0.875977 5.25053C0.875977 6.41062 1.33673 7.52322 2.15692 8.34366L23.8132 29.9999L2.15692 51.6562C1.35998 52.4813 0.918999 53.5864 0.928967 54.7335C0.938935 55.8806 1.39905 56.978 2.21021 57.7891C3.02137 58.6003 4.11868 59.0604 5.26579 59.0704C6.4129 59.0803 7.51803 58.6393 8.34317 57.8424L33.0925 33.093C33.9127 32.2726 34.3735 31.16 34.3735 29.9999C34.3735 28.8398 33.9127 27.7272 33.0925 26.9068L8.34317 2.15741C7.52273 1.33722 6.41014 0.876465 5.25004 0.876465C4.08995 0.876465 2.97735 1.33722 2.15692 2.15741Z" fill="#BB8E34"/>
</svg>
