<svg width="15" height="20" viewBox="0 0 15 20" fill="none" xmlns="http://www.w3.org/2000/svg">
<path d="M13.5303 13.6386L11.4094 13.3158C10.9 13.2378 10.399 13.4716 10.0399 13.9504L8.50351 15.999C6.14042 14.3957 4.20319 11.8239 3.00077 8.66193L4.54554 6.60221C4.9046 6.12347 5.07995 5.45545 5.0215 4.77631L4.77935 1.97064C4.67915 0.846152 3.96938 0 3.11767 0H1.6731C0.72953 0 -0.0553836 1.04656 0.0030674 2.30465C0.445625 11.8127 6.14877 19.4058 13.2714 19.9959C14.215 20.0738 14.9999 19.0273 14.9999 17.7692V15.8431C15.0083 14.7186 14.3737 13.7722 13.5303 13.6386Z" fill="#BB8E34"/>
</svg>
