<svg width="35" height="60" viewBox="0 0 35 60" fill="none" xmlns="http://www.w3.org/2000/svg">
<path d="M32.8431 2.15765C33.6633 2.97808 34.1241 4.09068 34.1241 5.25077C34.1241 6.41087 33.6633 7.52347 32.8431 8.3439L11.1869 30.0001L32.8431 51.6564C33.6401 52.4815 34.081 53.5867 34.0711 54.7338C34.0611 55.8809 33.601 56.9782 32.7898 57.7894C31.9787 58.6005 30.8814 59.0606 29.7343 59.0706C28.5871 59.0806 27.482 58.6396 26.6569 57.8426L1.9075 33.0933C1.08731 32.2728 0.626556 31.1602 0.626556 30.0001C0.626556 28.8401 1.08731 27.7275 1.9075 26.907L26.6569 2.15765C27.4773 1.33746 28.5899 0.876709 29.75 0.876709C30.9101 0.876709 32.0227 1.33746 32.8431 2.15765Z" fill="#BB8E34"/>
</svg>
