<svg width="13" height="13" viewBox="0 0 13 13" fill="none" xmlns="http://www.w3.org/2000/svg">
<path d="M6.49998 0.25C6.18748 0.25 5.87498 0.36875 5.61873 0.61875L3.55623 2.675L6.49998 5.6125L9.44373 2.675L7.38123 0.61875C7.12498 0.36875 6.81248 0.25 6.49998 0.25ZM2.67498 3.55625L0.618726 5.61875C0.124976 6.10625 0.124976 6.89375 0.618726 7.38125L2.67498 9.44375L5.61248 6.5L2.67498 3.55625ZM10.325 3.55625L7.38748 6.5L10.325 9.44375L12.3812 7.38125C12.875 6.89375 12.875 6.10625 12.3812 5.61875L10.325 3.55625ZM6.49998 7.3875L3.55623 10.325L5.61873 12.3813C6.10623 12.875 6.89373 12.875 7.38123 12.3813L9.44373 10.325L6.49998 7.3875Z" fill="#BB8E34"/>
</svg>
