<?xml version="1.0" encoding="utf-8"?>
<svg viewBox="0 0 35 60" xmlns="http://www.w3.org/2000/svg" xmlns:xlink="http://www.w3.org/1999/xlink">
<style>:root>svg{display:none}:root>svg:target{display:block}</style>
<svg viewBox="0 0 11 11" id="arrow" xmlns="http://www.w3.org/2000/svg">
<path d="M6.875 2.292l-.646.646 2.099 2.104H.917v.916h7.41L6.225 8.062l.651.646L10.083 5.5 6.875 2.292z"/></svg>
<svg viewBox="0 0 20 6" id="arrow-cart" xmlns="http://www.w3.org/2000/svg"><path d="M15.012 2.167H1.25C.563 2.167 0 2.542 0 3c0 .458.563.833 1.25.833h13.762v1.492c0 .375.675.558 1.063.292l3.475-2.325c.238-.167.238-.425 0-.592L16.075.375C15.688.108 15.012.3 15.012.667v1.5z"/></svg>
<svg viewBox="0 0 12 7" id="arrow-menu" xmlns="http://www.w3.org/2000/svg"><path d="M1.839.31l4.166 4.125L10.172.311a1.077 1.077 0 011.514 0 1.051 1.051 0 010 1.499L6.757 6.69a1.077 1.077 0 01-1.514 0L.314 1.81a1.051 1.051 0 010-1.5 1.1 1.1 0 011.525 0z"/></svg><svg viewBox="0 0 26 13" id="arrow-next" xmlns="http://www.w3.org/2000/svg"><path fill-rule="evenodd" clip-rule="evenodd" d="M15.007.643l10 5.773-10 5.774V7.416h-15v-2h15V.643z"/></svg><svg viewBox="0 0 26 13" id="arrow-prev" xmlns="http://www.w3.org/2000/svg"><path fill-rule="evenodd" clip-rule="evenodd" d="M10.007 12.19l-10-5.774 10-5.773v4.773h15v2h-15v4.774z"/></svg><svg viewBox="0 0 25 20" id="mail" xmlns="http://www.w3.org/2000/svg"><path d="M22.5 0h-20A2.507 2.507 0 000 2.5v15C0 18.875 1.125 20 2.5 20h20c1.375 0 2.5-1.125 2.5-2.5v-15C25 1.125 23.875 0 22.5 0zM22 5.313l-8.175 5.112a2.476 2.476 0 01-2.65 0L3 5.312a1.061 1.061 0 111.125-1.8L12.5 8.75l8.375-5.237A1.061 1.061 0 1122 5.313z"/></svg><svg viewBox="0 0 35 60" id="next" xmlns="http://www.w3.org/2000/svg"><path d="M2.157 2.157a4.375 4.375 0 000 6.187L23.813 30 2.157 51.656a4.375 4.375 0 006.186 6.186l24.75-24.749a4.375 4.375 0 000-6.186L8.343 2.157a4.375 4.375 0 00-6.186 0z"/></svg><svg  viewBox="0 0 15 20" id="phone" xmlns="http://www.w3.org/2000/svg"><path d="M13.53 13.639l-2.12-.323c-.51-.078-1.011.156-1.37.634L8.504 16C6.14 14.396 4.204 11.824 3 8.662l1.545-2.06c.359-.479.534-1.147.475-1.826L4.78 1.971C4.68.846 3.97 0 3.118 0H1.673C.73 0-.055 1.047.003 2.305c.443 9.508 6.146 17.1 13.268 17.69.944.079 1.729-.968 1.729-2.226v-1.926c.008-1.124-.626-2.07-1.47-2.204z"/></svg><svg viewBox="0 0 35 60" id="prev" xmlns="http://www.w3.org/2000/svg"><path d="M32.843 2.158a4.375 4.375 0 010 6.186L11.187 30l21.656 21.656a4.375 4.375 0 01-6.186 6.187l-24.75-24.75a4.375 4.375 0 010-6.186l24.75-24.75a4.375 4.375 0 016.186 0z"/></svg><svg viewBox="0 0 13 13" id="rhomb" xmlns="http://www.w3.org/2000/svg"><path d="M6.5.25c-.313 0-.625.119-.881.369L3.556 2.675 6.5 5.613l2.944-2.938L7.38.619A1.251 1.251 0 006.5.25zM2.675 3.556L.619 5.62a1.234 1.234 0 000 1.762l2.056 2.063L5.612 6.5 2.675 3.556zm7.65 0L7.387 6.5l2.938 2.944 2.056-2.063a1.234 1.234 0 000-1.762l-2.056-2.063zM6.5 7.388l-2.944 2.937 2.063 2.056a1.234 1.234 0 001.762 0l2.063-2.056L6.5 7.388z"/></svg></svg>